<svg width="120" height="124" viewBox="0 0 120 124" fill="none" xmlns="http://www.w3.org/2000/svg">
<circle cx="60" cy="64" r="60" fill="#CFD1E0"/>
<path opacity="0.958" fill-rule="evenodd" clip-rule="evenodd" d="M76.4062 0C79.2968 0 82.1876 0 85.0781 0C101.44 2.57147 112.495 11.634 118.242 27.1875C118.998 29.7595 119.584 32.3377 120 34.9219C120 37.8124 120 40.7032 120 43.5938C117.573 59.4977 108.901 70.4745 93.9844 76.5234C79.3291 81.1547 66.1261 78.5766 54.375 68.7891C54.2187 68.6327 54.0626 68.6327 53.9062 68.7891C51.6405 71.0548 49.3751 73.3202 47.1094 75.5859C49.0249 77.9037 49.2204 80.3646 47.6953 82.9688C35.8594 94.8047 24.0234 106.641 12.1875 118.477C11.2655 119.054 10.328 119.562 9.375 120C8.04687 120 6.71876 120 5.39062 120C2.73438 119.062 0.9375 117.266 0 114.609C0 113.281 0 111.953 0 110.625C0.438143 109.672 0.945954 108.735 1.52344 107.812C13.3594 95.9766 25.1953 84.1406 37.0312 72.3047C39.6354 70.7796 42.0963 70.9751 44.4141 72.8906C46.6798 70.6249 48.9452 68.3595 51.2109 66.0938C51.3673 65.9374 51.3673 65.7813 51.2109 65.625C41.4237 53.8748 38.8455 40.6716 43.4766 26.0156C49.5253 11.0992 60.5018 2.4273 76.4062 0Z" fill="#323232"/>
<path fill-rule="evenodd" clip-rule="evenodd" d="M76.875 3.51569C91.9694 2.80038 103.571 8.73787 111.68 21.3282C117.577 32.1861 118.045 43.28 113.086 54.6094C105.637 68.7097 93.8787 75.5455 77.8125 75.1172C63.7584 73.426 53.7194 66.1995 47.6953 53.4376C41.8092 37.313 45.1296 23.446 57.6562 11.836C63.3159 7.32616 69.7223 4.55271 76.875 3.51569Z" fill="#CFD1E0"/>
<path fill-rule="evenodd" clip-rule="evenodd" d="M103.125 59.0624C102.705 58.4157 102.588 57.7126 102.773 56.953C109.228 48.3578 110.634 38.9828 106.992 28.828C101.201 16.3772 91.3962 10.4787 77.5781 11.1327C72.0947 11.8397 67.1728 13.871 62.8125 17.2264C62.1312 17.3948 61.5061 17.2777 60.9375 16.8749C60.3886 16.1209 60.3495 15.3396 60.8203 14.5311C72.0213 6.27127 83.8573 5.29472 96.3281 11.6014C109.133 19.755 114.25 31.3565 111.68 46.4061C110.541 50.9488 108.588 55.0895 105.82 58.828C104.974 59.6169 104.075 59.6952 103.125 59.0624Z" fill="#323232"/>
<path fill-rule="evenodd" clip-rule="evenodd" d="M103.125 59.0624C102.437 60.1417 101.578 61.0792 100.547 61.8749C99.8217 61.442 99.0403 61.3248 98.2031 61.5233C89.9309 67.6365 80.8683 69.1208 71.0156 65.9764C60.4437 61.73 54.311 53.9565 52.6172 42.6561C51.7214 34.8777 53.6747 27.9247 58.4766 21.7968C58.6751 20.9595 58.5579 20.1782 58.125 19.453C58.9207 18.4223 59.8582 17.5629 60.9375 16.8749C61.5061 17.2777 62.1312 17.3948 62.8125 17.2264C67.1728 13.871 72.0947 11.8397 77.5781 11.1327C91.3962 10.4787 101.201 16.3772 106.992 28.828C110.634 38.9828 109.228 48.3578 102.773 56.953C102.588 57.7126 102.705 58.4157 103.125 59.0624Z" fill="#CFD1E0"/>
<path fill-rule="evenodd" clip-rule="evenodd" d="M77.8124 14.9999C90.5664 14.4438 99.2772 20.0688 103.945 31.8749C106.583 41.9116 104.2 50.5445 96.7968 57.7734C88.5137 64.2419 79.5294 65.4138 69.8437 61.289C60.4616 56.0845 55.9694 48.0766 56.3671 37.2656C57.5673 27.0902 62.9188 20.0979 72.4218 16.289C74.207 15.6665 76.004 15.2368 77.8124 14.9999Z" fill="white"/>
<path fill-rule="evenodd" clip-rule="evenodd" d="M58.1251 19.4531C58.5579 20.1784 58.6751 20.9596 58.4766 21.7969C53.6747 27.9249 51.7215 34.8778 52.6172 42.6563C54.3111 53.9567 60.4437 61.7302 71.0157 65.9766C80.8683 69.121 89.9309 67.6367 98.2032 61.5235C99.0404 61.3249 99.8218 61.4421 100.547 61.875C100.895 62.6749 100.856 63.4563 100.43 64.2188C91.8699 70.6055 82.3777 72.5196 71.9532 69.961C60.8984 66.4062 53.5939 59.1017 50.0391 48.0469C47.479 37.8019 49.2758 28.4269 55.4297 19.9219C56.2226 19.1972 57.1212 19.041 58.1251 19.4531Z" fill="#323232"/>
<path fill-rule="evenodd" clip-rule="evenodd" d="M67.0313 28.1249C67.5364 28.0949 68.0051 28.2121 68.4375 28.4765C69.3394 29.4178 70.2769 30.3161 71.25 31.1718C72.309 30.1518 73.4025 29.1752 74.5313 28.2421C76.3336 28.2517 76.9976 29.1501 76.5235 30.9374C75.5822 31.8393 74.6839 32.7768 73.8282 33.7499C74.6839 34.7231 75.5822 35.6606 76.5235 36.5624C77.0056 38.5019 76.2633 39.3222 74.2969 39.0234C73.2465 38.1686 72.2309 37.27 71.25 36.3281C70.2692 37.27 69.2536 38.1686 68.2032 39.0234C66.2607 39.326 65.5184 38.5057 65.9766 36.5624C66.9179 35.6606 67.8162 34.7231 68.6719 33.7499C67.73 32.7691 66.8314 31.7535 65.9766 30.7031C65.6 29.5167 65.9515 28.6574 67.0313 28.1249Z" fill="#323232"/>
<path fill-rule="evenodd" clip-rule="evenodd" d="M85.7813 28.1249C86.4994 28.0415 87.1245 28.2367 87.6563 28.7109C88.4766 29.5312 89.2969 30.3515 90.1172 31.1718C91.1014 30.1092 92.1561 29.1325 93.2813 28.2421C94.5364 28.0898 95.3175 28.6368 95.625 29.8827C95.5957 30.2641 95.4786 30.6156 95.2735 30.9374C94.3751 31.8358 93.4765 32.7344 92.5782 33.6327C93.6408 34.6169 94.6175 35.6716 95.5079 36.7968C95.6651 38.5919 94.8448 39.3342 93.0469 39.0234C91.9965 38.1686 90.9809 37.27 90 36.3281C89.0192 37.27 88.0036 38.1686 86.9532 39.0234C85.0107 39.326 84.2684 38.5056 84.7266 36.5624C85.6679 35.6606 86.5662 34.7231 87.4219 33.7499C86.48 32.7691 85.5814 31.7535 84.7266 30.7031C84.35 29.5167 84.7015 28.6574 85.7813 28.1249Z" fill="#323232"/>
<path fill-rule="evenodd" clip-rule="evenodd" d="M77.5782 47.1095C83.1216 46.3152 87.8482 47.8777 91.7578 51.797C91.9036 53.6042 91.0833 54.3465 89.2969 54.0235C83.5838 49.1914 77.8807 49.1914 72.1875 54.0235C70.1173 54.4531 69.297 53.6328 69.7266 51.5626C71.9871 49.4127 74.6044 47.9284 77.5782 47.1095Z" fill="#323232"/>
<path fill-rule="evenodd" clip-rule="evenodd" d="M43.125 76.875C41.5488 78.2163 40.1426 79.7006 38.9062 81.3281C37.7667 80.4661 36.8684 79.4503 36.2109 78.2812C37.2731 77.1405 38.4061 76.0859 39.6094 75.1172C41.2111 74.8242 42.383 75.4102 43.125 76.875Z" fill="#B7BAD3"/>
<path fill-rule="evenodd" clip-rule="evenodd" d="M43.125 76.875C44.8226 77.7673 45.3305 79.0955 44.6484 80.8594C43.6294 81.9176 42.5747 82.9334 41.4844 83.9062C40.542 83.1202 39.6825 82.2607 38.9062 81.3281C40.1426 79.7006 41.5488 78.2163 43.125 76.875Z" fill="#CFD1E0"/>
<path fill-rule="evenodd" clip-rule="evenodd" d="M36.3281 83.9062C25.6364 94.2073 15.0896 104.676 4.6875 115.312C3.2723 113.703 3.15511 111.984 4.33594 110.156C13.9844 100.508 23.6327 90.8595 33.2813 81.2109C34.4503 81.8684 35.4661 82.7667 36.3281 83.9062Z" fill="#43506C"/>
<path fill-rule="evenodd" clip-rule="evenodd" d="M36.3281 83.9062C37.3901 84.6907 38.2104 85.6282 38.7891 86.7188C29.1405 96.3673 19.4922 106.016 9.84375 115.664C8.00693 116.844 6.28819 116.726 4.6875 115.312C15.0896 104.676 25.6364 94.2073 36.3281 83.9062Z" fill="#6A7793"/>
</svg>
